<svg width="480" height="480" viewBox="0 0 480 480" fill="none" xmlns="http://www.w3.org/2000/svg">
<path d="M58 202.98L58 185C156.582 290.082 323.418 290.082 422 185L422 202.98C422 283.733 367.593 354.349 289.51 374.942C257.058 383.501 222.942 383.501 190.49 374.942C112.407 354.349 58 283.733 58 202.98Z" fill="url(#paint0_radial)"/>
<path d="M149 164.465L149 155C198.214 207.717 281.786 207.717 331 155L331 164.465C331 204.797 303.852 240.077 264.866 250.41C248.57 254.729 231.43 254.729 215.134 250.41C176.148 240.077 149 204.797 149 164.465Z" fill="url(#paint1_radial)"/>
<circle cx="240" cy="138" r="47" transform="rotate(90 240 138)" fill="url(#paint2_radial)"/>
<defs>
<radialGradient id="paint0_radial" cx="0" cy="0" r="1" gradientUnits="userSpaceOnUse" gradientTransform="translate(239.5 233) rotate(-90) scale(147.5 129.262)">
<stop offset="0.137057" stop-color="#F9F9F9"/>
<stop offset="1" stop-color="#3C3C3C"/>
</radialGradient>
<radialGradient id="paint1_radial" cx="0" cy="0" r="1" gradientUnits="userSpaceOnUse" gradientTransform="translate(239.75 179.118) rotate(-90) scale(74.1133 64.6312)">
<stop offset="0.137057" stop-color="#F9F9F9"/>
<stop offset="1" stop-color="#3C3C3C"/>
</radialGradient>
<radialGradient id="paint2_radial" cx="0" cy="0" r="1" gradientUnits="userSpaceOnUse" gradientTransform="translate(286.5 138.5) rotate(180) scale(56 75.3523)">
<stop offset="0.137057" stop-color="#F9F9F9"/>
<stop offset="1" stop-color="#3C3C3C"/>
</radialGradient>
</defs>
</svg>
